<svg xmlns="http://www.w3.org/2000/svg" width="1200" height="630" viewBox="0 0 1200 630" role="img" aria-label="Mosaiq  Agentic investment communication">
  <defs>
    <radialGradient id="bg" cx="50%" cy="44%" r="75%">
      <stop offset="0%" stop-color="#F4F0E9"/>
      <stop offset="58%" stop-color="#E9E4DC"/>
      <stop offset="100%" stop-color="#DED7CD"/>
    </radialGradient>
    <radialGradient id="glow" cx="50%" cy="46%" r="42%">
      <stop offset="0%" stop-color="#F4F0E9" stop-opacity="0.95"/>
      <stop offset="100%" stop-color="#F4F0E9" stop-opacity="0"/>
    </radialGradient>
  </defs>
  <rect width="1200" height="630" fill="url(#bg)"/>
  <rect width="1200" height="630" fill="url(#glow)"/>

  <!-- halftone hint -->
  <g fill="#4A5E86" opacity="0.22">
    <circle cx="920" cy="180" r="3"/><circle cx="960" cy="210" r="2.5"/><circle cx="990" cy="250" r="3"/>
    <circle cx="940" cy="280" r="2"/><circle cx="1010" cy="190" r="2"/><circle cx="880" cy="240" r="2.5"/>
    <circle cx="1020" cy="320" r="3"/><circle cx="970" cy="350" r="2"/><circle cx="900" cy="310" r="2.5"/>
    <circle cx="1030" cy="260" r="2"/><circle cx="850" cy="200" r="2"/><circle cx="1040" cy="380" r="2.5"/>
  </g>
  <g fill="#748BB8" opacity="0.18">
    <circle cx="860" cy="360" r="2.5"/><circle cx="930" cy="400" r="2"/><circle cx="1000" cy="420" r="3"/>
    <circle cx="890" cy="430" r="2"/><circle cx="980" cy="460" r="2.5"/><circle cx="1050" cy="440" r="2"/>
  </g>

  <!-- brand mark -->
  <circle cx="120" cy="120" r="42" fill="none" stroke="#1C1A17" stroke-opacity="0.18" stroke-width="1.5"/>
  <text x="120" y="134" font-family="Georgia, 'Times New Roman', serif" font-size="46" fill="#1C1A17" text-anchor="middle">M</text>

  <text x="96" y="300" font-family="Georgia, 'Times New Roman', serif" font-size="132" fill="#1C1A17" letter-spacing="-2">Mosaiq</text>
  <text x="96" y="372" font-family="Georgia, 'Times New Roman', serif" font-size="34" fill="#5A5249">Agentic investment communication</text>
  <text x="96" y="430" font-family="ui-monospace, 'JetBrains Mono', monospace" font-size="18" fill="#6B6258" letter-spacing="3.5">BANKS · INSURERS · INVESTMENT COMMITTEES</text>
  <text x="96" y="548" font-family="Georgia, 'Times New Roman', serif" font-size="24" fill="#5A5249" font-style="italic">Turn expertise into audience-relevant client communication.</text>
</svg>
